<svg width="16" height="16" viewBox="0 0 16 16" fill="none" xmlns="http://www.w3.org/2000/svg">
<path d="M8.96442 1.63248L10.2844 4.27248C10.4644 4.63998 10.9444 4.99248 11.3494 5.05998L13.7419 5.45748C15.2719 5.71248 15.6319 6.82248 14.5294 7.91748L12.6694 9.77748C12.3544 10.0925 12.1819 10.7 12.2794 11.135L12.8119 13.4375C13.2319 15.26 12.2644 15.965 10.6519 15.0125L8.40942 13.685C8.00442 13.445 7.33692 13.445 6.92442 13.685L4.68192 15.0125C3.07692 15.965 2.10192 15.2525 2.52192 13.4375L3.05442 11.135C3.15192 10.7 2.97942 10.0925 2.66442 9.77748L0.804424 7.91748C-0.290576 6.82248 0.0619242 5.71248 1.59192 5.45748L3.98442 5.05998C4.38192 4.99248 4.86192 4.63998 5.04192 4.27248L6.36192 1.63248C7.08192 0.19998 8.25192 0.19998 8.96442 1.63248Z" fill="#FFCD1A"/>
</svg>
